<?xml version="1.0" standalone="no"?>
<!DOCTYPE svg PUBLIC "-//W3C//DTD SVG 20010904//EN"
 "http://www.w3.org/TR/2001/REC-SVG-20010904/DTD/svg10.dtd">
<svg version="1.0" xmlns="http://www.w3.org/2000/svg"
 width="100%" height="621.000000pt" viewBox="0 0 614.000000 621.000000"
 preserveAspectRatio="xMidYMid meet">

<g transform="translate(0.000000,621.000000) scale(0.100000,-0.100000)"
fill="#000000" stroke="none">
<path d="M340 6186 c-165 -37 -288 -164 -319 -331 -9 -44 -11 -775 -9 -2785
l3 -2725 23 -56 c49 -122 139 -216 252 -262 l55 -22 2275 0 2275 0 58 24 c111
44 201 138 248 259 21 52 23 78 27 282 l4 226 86 18 c225 46 444 180 587 359
76 95 165 267 194 376 66 241 44 508 -59 728 -141 300 -408 515 -723 580 l-87
17 -2 1496 -3 1495 -22 58 c-43 115 -130 203 -243 250 l-55 22 -2255 2 c-1755
1 -2267 -1 -2310 -11z m4524 -280 c18 -7 44 -29 57 -47 l24 -34 3 -1477 2
-1476 -42 -7 c-125 -21 -309 -99 -423 -180 -88 -62 -223 -209 -277 -301 -135
-230 -181 -505 -127 -767 81 -404 389 -717 787 -803 l83 -18 -3 -202 c-3 -226
-7 -240 -79 -276 -32 -17 -160 -18 -2247 -18 -2453 0 -2255 -5 -2305 64 l-22
31 0 2715 0 2715 22 31 c49 69 -149 64 2301 64 1864 0 2218 -2 2246 -14z m431
-3311 c33 -9 101 -36 150 -60 391 -191 550 -658 356 -1050 -97 -196 -278 -344
-497 -407 -104 -30 -295 -32 -394 -3 -271 77 -477 275 -560 540 -30 95 -38
273 -17 372 35 160 98 274 222 398 128 127 240 187 410 221 85 17 245 11 330
-11z"/>
<path d="M1260 4390 l0 -310 310 0 310 0 0 310 0 310 -310 0 -310 0 0 -310z"/>
<path d="M2370 4385 l0 -95 750 0 750 0 0 95 0 95 -750 0 -750 0 0 -95z"/>
<path d="M1260 3110 l0 -310 310 0 310 0 0 310 0 310 -310 0 -310 0 0 -310z"/>
<path d="M2370 3105 l0 -95 640 0 640 0 0 95 0 95 -640 0 -640 0 0 -95z"/>
<path d="M1260 1830 l0 -310 310 0 310 0 0 310 0 310 -310 0 -310 0 0 -310z"/>
<path d="M2370 1820 l0 -100 535 0 535 0 0 100 0 100 -535 0 -535 0 0 -100z"/>
<path d="M5235 1920 l-279 -279 -133 129 c-73 72 -136 130 -140 130 -5 0 -39
-30 -76 -68 l-67 -68 211 -203 211 -204 351 351 352 352 -70 70 c-38 38 -72
70 -75 70 -3 0 -131 -126 -285 -280z"/>
</g>
</svg>
