<svg xmlns="http://www.w3.org/2000/svg" width="15.032" height="13.153" viewBox="0 0 15.032 13.153">
  <path id="camera" d="M9.521,32.94a.238.238,0,0,1,.22.153l.649,1.726h3.233a.471.471,0,0,1,.47.47v8.456a.471.471,0,0,1-.47.47H1.409a.471.471,0,0,1-.47-.47V35.288a.471.471,0,0,1,.47-.47H4.645l.59-1.574a.471.471,0,0,1,.44-.305H9.521m0-.94H5.675a1.407,1.407,0,0,0-1.318.913l-.364.966H1.409A1.41,1.41,0,0,0,0,35.288v8.456a1.41,1.41,0,0,0,1.409,1.409H13.623a1.41,1.41,0,0,0,1.409-1.409V35.288a1.41,1.41,0,0,0-1.409-1.409H11.039l-.42-1.116A1.168,1.168,0,0,0,9.521,32ZM7.516,43.039a3.523,3.523,0,1,1,3.523-3.523A3.526,3.526,0,0,1,7.516,43.039Zm0-6.107A2.584,2.584,0,1,0,10.1,39.516,2.587,2.587,0,0,0,7.516,36.932Z" transform="translate(0 -32)" fill="#fff"/>
</svg>
