<svg xmlns="http://www.w3.org/2000/svg" width="18.241" height="23" viewBox="0 0 18.241 23">
  <g id="cash-payment" transform="translate(-3.569 -1.19)">
    <path id="Path_242" data-name="Path 242" d="M20.279,23.232l-1.641.514-1.418.444H9.775L8.328,19.567,3.569,4.362l4.759-1.49,5.081-1.59,5.23,16.708Z" fill="#379a6b"/>
    <path id="Path_243" data-name="Path 243" d="M16.8,21.412l.355,1.135-4.541,1.421-.355-1.135-1.135.355L5.912,6.537l1.135-.355L6.692,5.047l4.541-1.421.355,1.135,1.135-.355,5.212,16.652Z" fill="#44c086"/>
    <path id="Path_244" data-name="Path 244" d="M8.328,1.19h10.31v23H8.328Z" fill="#3ba673"/>
    <path id="Path_245" data-name="Path 245" d="M15.862,21.414V22.6H11.1v-1.19H9.914V3.966H11.1V2.776h4.759v1.19h1.19V21.414Z" fill="#44c086"/>
    <circle id="Ellipse_12" data-name="Ellipse 12" cx="1.983" cy="1.983" r="1.983" transform="translate(11.5 10.707)" fill="#3ba673"/>
    <path id="Path_246" data-name="Path 246" d="M21.81,14.672V24.19H19.034a3.966,3.966,0,0,1-3.966-3.966h.008L12.5,16.417a1.586,1.586,0,1,1,2.629-1.776l2.315,3.2h1.19V8.328l2.986,5.6a1.586,1.586,0,0,1,.187.746Z" fill="#f5cbaa"/>
  </g>
</svg>
