<svg xmlns="http://www.w3.org/2000/svg" width="17.275" height="18.51" viewBox="0 0 17.275 18.51">
  <path id="Path_266" data-name="Path 266" d="M40,24.947a.307.307,0,0,0,0,.041l1.163,8.719a.928.928,0,0,0,.917.8H55.116a.927.927,0,0,0,.925-.925V32.371l1.231-9.234a.016.016,0,0,1,0,0c0-.006,0-.013,0-.019s0-.009,0-.014V21.862a.308.308,0,0,0-.308-.308H50.8a.308.308,0,0,0-.308.308V23.1s0,.009,0,.014,0,.013,0,.019a.016.016,0,0,0,0,0L51.06,27.4c-.62-.047-.812-.215-.868-.294a.231.231,0,0,1-.033-.2.3.3,0,0,0-.023-.286.307.307,0,0,0-.264-.136,3.475,3.475,0,0,0-1.477.3l.24-1.8a.308.308,0,0,0,0-.041,4.015,4.015,0,0,0-2.189-3.572.308.308,0,0,0,.025-.18l-.308-1.851a.308.308,0,0,0-.3-.258h-.308V17.851h2.159a.308.308,0,0,0,.308-.308V16.309A.308.308,0,0,0,47.692,16l-4.627.308a.308.308,0,0,0-.272.21l-.308.925a.308.308,0,0,0,.293.406h.308v1.234h-.308a.308.308,0,0,0-.3.258l-.308,1.851a.308.308,0,0,0,.025.18A4.015,4.015,0,0,0,40,24.947Zm12.648,8.946H45.2a.269.269,0,0,1-.269-.269V30.46a.269.269,0,0,1,.269-.269h7.483a.269.269,0,0,1,.269.269v3.165a.269.269,0,0,1-.269.269Zm-6.787-4.936h6.17v.617h-6.17Zm9.563,4.627a.309.309,0,0,1-.308.308H53.532a.883.883,0,0,0,.042-.269v-.965h1.851Zm.039-1.542h-1.89V30.46a.887.887,0,0,0-.886-.886h-.04v-.925c0-.009,0-.017,0-.026h0s0,0,0-.005h0a1.619,1.619,0,0,0-.18-.578,1.141,1.141,0,0,0-.778-.6L51.15,23.4h5.465ZM51.106,22.17h5.553v.617H51.106Zm-1.43,5.276c.261.388.846.585,1.738.585a.528.528,0,0,1,.5.288l.011.021H47.289c.132-.1.257-.207.381-.312a3.072,3.072,0,0,1,1.874-.908A.828.828,0,0,0,49.676,27.446ZM43.312,16.911l4.092-.273v.6H43.2Zm.39.94h1.234v1.234H43.7Zm-.87,3.085.206-1.234H45.6l.206,1.234Zm1.178.617h.617a3.4,3.4,0,0,1,3.393,3.373l-.3,2.268c-.159.119-.305.242-.447.362a2.444,2.444,0,0,1-1.719.783.308.308,0,0,0-.308.308v.925H45.2a.887.887,0,0,0-.886.886v3.165a.883.883,0,0,0,.042.269H42.083a.309.309,0,0,1-.306-.268l-1.16-8.7A3.4,3.4,0,0,1,44.01,21.553Z" transform="translate(-40 -16)" fill="#4157ff"/>
</svg>
