<svg id="empty2" xmlns="http://www.w3.org/2000/svg" width="134.763" height="126" viewBox="0 0 134.763 126">
  <circle id="Ellipse_28" data-name="Ellipse 28" cx="63" cy="63" r="63" fill="#eff7ff"/>
  <path id="Path_275" data-name="Path 275" d="M29.7,22.344A3.443,3.443,0,0,1,33.144,18.9h6.324a4.884,4.884,0,0,1,4.884,4.884v2H33.144A3.443,3.443,0,0,1,29.7,22.344Z" fill="#f4f8fb"/>
  <path id="Path_276" data-name="Path 276" d="M132.083,40.77H48.442l8.532,46.573a4,4,0,0,0,3.934,3.279h58.4a8,8,0,0,0,7.89-6.675l6.86-40.846A2,2,0,0,0,132.083,40.77Z" fill="#fff"/>
  <path id="Path_277" data-name="Path 277" d="M53.962,40.77h79.3a1,1,0,0,1,.986,1.17l-7.4,42.806a8,8,0,0,1-7.883,6.637H62.335a7,7,0,0,1-6.9-5.814L45.218,26.118m0,0-.627-3.648a5,5,0,0,0-4.928-4.153H33.507a3.9,3.9,0,0,0-3.9,3.9h0a3.9,3.9,0,0,0,3.9,3.9Z" fill="none" stroke="#a7b4cf" stroke-width="1"/>
  <line id="Line_17" data-name="Line 17" x2="68.261" transform="translate(56.935 58.537)" fill="none" stroke="#a7b4cf" stroke-linecap="round" stroke-linejoin="round" stroke-width="1"/>
  <line id="Line_18" data-name="Line 18" x2="63.883" transform="translate(58.647 73.569)" fill="none" stroke="#a7b4cf" stroke-linecap="round" stroke-linejoin="round" stroke-width="1"/>
  <line id="Line_19" data-name="Line 19" x2="3.891" y2="36.68" transform="translate(69.733 47.304)" fill="none" stroke="#a7b4cf" stroke-linecap="round" stroke-linejoin="round" stroke-width="1"/>
  <line id="Line_20" data-name="Line 20" x2="36.886" transform="translate(113.539 47.303) rotate(96.054)" fill="none" stroke="#a7b4cf" stroke-linecap="round" stroke-linejoin="round" stroke-width="1"/>
  <path id="Path_278" data-name="Path 278" d="M66.33,102.99l1.857-2.785a4,4,0,0,1,3.328-1.781h49.424" fill="none" stroke="#a7b4cf" stroke-width="1"/>
  <line id="Line_21" data-name="Line 21" y2="36.674" transform="translate(91.566 47.359)" fill="none" stroke="#a7b4cf" stroke-linecap="round" stroke-linejoin="round" stroke-width="1"/>
  <circle id="Ellipse_29" data-name="Ellipse 29" cx="5.398" cy="5.398" r="5.398" transform="translate(55.033 105.965)" fill="#dce0eb" stroke="#a7b4cf" stroke-width="1"/>
  <circle id="Ellipse_30" data-name="Ellipse 30" cx="5.398" cy="5.398" r="5.398" transform="translate(109.643 105.965)" fill="#dce0eb" stroke="#a7b4cf" stroke-width="1"/>
  <line id="Line_22" data-name="Line 22" x2="12.368" transform="translate(29.606 63.484)" fill="none" stroke="#1987fb" stroke-width="1"/>
  <line id="Line_23" data-name="Line 23" x2="12.368" transform="translate(33.792 84.033)" fill="none" stroke="#1987fb" stroke-width="1"/>
  <line id="Line_24" data-name="Line 24" x2="7.231" transform="translate(37.027 73.569)" fill="none" stroke="#1987fb" stroke-width="1"/>
</svg>
