<svg id="syringe-medical-coronavirus-covid19-drug" xmlns="http://www.w3.org/2000/svg" width="16.701" height="20.887" viewBox="0 0 16.701 20.887">
  <path id="Path_263" data-name="Path 263" d="M14.348,43.133h.7v.7a.348.348,0,0,0,.348.348h1.392a.348.348,0,0,0,.348-.348v-.7h.7a.348.348,0,0,0,.348-.348V41.392a.348.348,0,0,0-.348-.348h-.7v-.7A.348.348,0,0,0,16.785,40H15.392a.348.348,0,0,0-.348.348v.7h-.7a.348.348,0,0,0-.348.348v1.392A.348.348,0,0,0,14.348,43.133Zm.348-1.392h.7a.348.348,0,0,0,.348-.348v-.7h.7v.7a.348.348,0,0,0,.348.348h.7v.7h-.7a.348.348,0,0,0-.348.348v.7h-.7v-.7a.348.348,0,0,0-.348-.348h-.7Z" transform="translate(-11.563 -26.772)" fill="#4157ff"/>
  <path id="Path_264" data-name="Path 264" d="M13.614,21.481v-.7h.348a.348.348,0,0,0,.348-.348V19.044A1.047,1.047,0,0,0,13.266,18H9.785a1.047,1.047,0,0,0-1.044,1.044v1.392a.348.348,0,0,0,.348.348h.348v.7A2.44,2.44,0,0,0,7,23.918v8.355a1.047,1.047,0,0,0,1.044,1.044h6.962a1.047,1.047,0,0,0,1.044-1.044V23.918A2.44,2.44,0,0,0,13.614,21.481ZM9.437,19.044a.348.348,0,0,1,.348-.348h3.481a.348.348,0,0,1,.348.348v1.044H9.437Zm5.918,13.228a.348.348,0,0,1-.348.348H8.044a.348.348,0,0,1-.348-.348V31.228h7.658Zm0-1.741H7.7v-5.57h7.658Zm0-6.266H7.7v-.348a1.741,1.741,0,0,1,1.741-1.741.7.7,0,0,0,.7-.7v-.7h2.785v.7a.7.7,0,0,0,.7.7,1.741,1.741,0,0,1,1.741,1.741Z" transform="translate(-7 -12.43)" fill="#4157ff"/>
  <path id="Path_265" data-name="Path 265" d="M40.933,19.405a1.044,1.044,0,0,0,.348-2.026V7.222a1.047,1.047,0,0,0-1.044-1.044h-.348V5.829a1.047,1.047,0,0,0-1.044-1.044V2.348a.348.348,0,1,0-.7,0V4.785A1.047,1.047,0,0,0,37.1,5.829v.348h-.348a1.047,1.047,0,0,0-1.044,1.044V17.379a1.044,1.044,0,0,0,.348,2.026H37.1V20.8h-.348a1.044,1.044,0,0,0,0,2.089h3.481a1.044,1.044,0,1,0,0-2.089h-.348V19.405ZM37.8,5.829a.348.348,0,0,1,.348-.348h.7a.348.348,0,0,1,.348.348v.348H37.8ZM36.407,7.222a.348.348,0,0,1,.348-.348h3.481a.348.348,0,0,1,.348.348V7.57H39.54a.348.348,0,0,0,0,.7h1.044v.7H38.844a.348.348,0,1,0,0,.7h1.741v.7H39.54a.348.348,0,0,0,0,.7h1.044v.7H38.844a.348.348,0,1,0,0,.7h1.741v.7H39.54a.348.348,0,0,0,0,.7h1.044v.7H38.844a.348.348,0,1,0,0,.7h1.741v2.089H36.407Zm3.829,14.272a.348.348,0,0,1,0,.7H36.756a.348.348,0,0,1,0-.7ZM37.8,20.8V19.405h1.392V20.8Zm-1.741-2.089a.348.348,0,1,1,0-.7h4.874a.348.348,0,0,1,0,.7Z" transform="translate(-25.268 -2)" fill="#4157ff"/>
</svg>
