<?xml version="1.0" standalone="no"?>
<!DOCTYPE svg PUBLIC "-//W3C//DTD SVG 20010904//EN"
 "http://www.w3.org/TR/2001/REC-SVG-20010904/DTD/svg10.dtd">
<svg version="1.0" xmlns="http://www.w3.org/2000/svg"
 width="256px" height="256px" viewBox="0 0 24.000000 24.000000"
 preserveAspectRatio="xMidYMid meet" >

<g transform="translate(0.000000,24.000000) scale(0.100000,-0.100000)"
fill="#000000" stroke="none">
<path d="M49 191 c-41 -41 -41 -101 0 -142 65 -64 171 -20 171 71 0 91 -106
135 -171 71z m132 -10 c39 -40 39 -82 0 -122 -40 -39 -82 -39 -122 0 -20 20
-29 39 -29 61 0 43 47 90 90 90 22 0 41 -9 61 -29z"/>
<path d="M77 154 c-12 -13 -7 -20 13 -20 11 0 19 5 17 10 -4 13 -21 18 -30 10z"/>
<path d="M137 154 c-12 -13 -7 -20 13 -20 11 0 19 5 17 10 -4 13 -21 18 -30
10z"/>
<path d="M60 103 c0 -20 37 -53 60 -53 22 0 60 33 60 53 0 8 -19 12 -60 13
-44 1 -60 -3 -60 -13z m100 -12 c0 -14 -37 -23 -60 -16 -34 11 -22 25 20 25
22 0 40 -4 40 -9z"/>
</g>
</svg>
