<?xml version="1.0" standalone="no"?>
<!DOCTYPE svg PUBLIC "-//W3C//DTD SVG 20010904//EN"
 "http://www.w3.org/TR/2001/REC-SVG-20010904/DTD/svg10.dtd">
<svg version="1.0" xmlns="http://www.w3.org/2000/svg"
 width="256px" height="256px" viewBox="0 0 128.000000 128.000000"
 preserveAspectRatio="xMidYMid meet">

<g transform="translate(0.000000,128.000000) scale(0.100000,-0.100000)"
fill="#000000" stroke="none">
<path d="M525 1268 c-87 -16 -209 -82 -279 -151 -98 -97 -150 -206 -165 -340
-8 -78 4 -110 36 -91 12 8 21 35 30 94 39 250 245 430 493 430 258 0 470 -194
496 -454 28 -275 -207 -535 -484 -536 l-64 0 42 50 c23 27 40 57 38 67 -4 23
-34 29 -55 11 -38 -31 -133 -150 -133 -167 0 -10 32 -55 72 -100 53 -60 77
-81 92 -79 38 5 32 48 -14 93 -22 21 -40 43 -40 47 0 4 26 8 58 8 200 1 407
130 494 310 44 93 60 159 60 255 0 357 -322 620 -677 553z"/>
</g>
</svg>
