<svg xmlns="http://www.w3.org/2000/svg" width="27.052" height="27.051" viewBox="0 0 27.052 27.051">
  <path id="upload" d="M23.881,22.825a1.057,1.057,0,1,1-1.057-1.057A1.06,1.06,0,0,1,23.881,22.825Zm-4.438-1.057A1.057,1.057,0,1,0,20.5,22.825,1.06,1.06,0,0,0,19.443,21.768Zm7.608-2.536v5.495a2.325,2.325,0,0,1-2.325,2.325H2.325A2.325,2.325,0,0,1,0,24.727V19.232a2.325,2.325,0,0,1,2.325-2.325H8.876V11.661H6.092A2.116,2.116,0,0,1,4.6,8.052L12.031.618a2.117,2.117,0,0,1,2.99,0l7.434,7.434a2.115,2.115,0,0,1-1.5,3.609H18.175v5.247h6.552A2.325,2.325,0,0,1,27.052,19.232ZM10.567,9.97v9.9a.424.424,0,0,0,.423.423h5.072a.424.424,0,0,0,.423-.423V9.97H20.96a.425.425,0,0,0,.3-.724L13.827,1.812a.424.424,0,0,0-.6,0L5.8,9.246a.425.425,0,0,0,.3.724Zm14.794,9.262a.636.636,0,0,0-.634-.634H18.175v1.268a2.113,2.113,0,0,1-2.113,2.113H10.99a2.113,2.113,0,0,1-2.113-2.113V18.6H2.325a.636.636,0,0,0-.634.634v5.495a.636.636,0,0,0,.634.634h22.4a.636.636,0,0,0,.634-.634Z" fill="#b4b8cc"/>
</svg>
